<svg width="330" height="210" viewBox="0 0 330 210" fill="none" xmlns="http://www.w3.org/2000/svg">
<rect width="30" height="210" fill="black"/>
<rect x="90" y="180" width="30" height="60" transform="rotate(90 90 180)" fill="black"/>
<rect x="90" width="30" height="60" transform="rotate(90 90 0)" fill="black"/>
<rect x="60" y="150" width="30" height="210" transform="rotate(-90 60 150)" fill="black"/>
<rect x="240" y="60" width="30" height="60" fill="black"/>
<rect x="60" y="60" width="30" height="60" fill="black"/>
<rect x="330" width="30" height="210" transform="rotate(90 330 0)" fill="black"/>
<rect x="150" y="90" width="30" height="60" transform="rotate(-180 150 90)" fill="black"/>
<rect x="330" y="90" width="30" height="60" transform="rotate(-180 330 90)" fill="black"/>
<rect x="120" y="210" width="30" height="210" transform="rotate(-90 120 210)" fill="black"/>
<rect x="300" y="120" width="30" height="60" fill="black"/>
</svg>
